<svg xmlns="http://www.w3.org/2000/svg" id="eagle" width="50mm" height="50mm" viewBox="0 0 70 70">
    <g id="eaglegroup"
        transform="matrix(0.35277777,0,0,-0.35277777,38.2118,41.378997)"
        style="image-rendering:auto">
        <path
            d="m 0,0 c 0,0 2.306,-3.793 3.831,-5.107 1.523,-1.31 5.07,-3.652 7.446,-5.318 2.378,-1.668 7.873,-6.56 11.278,-9.363 3.404,-2.801 4.787,-4.186 7.447,-5.318 2.66,-1.135 3.794,-2.45 7.02,-4.258 3.229,-1.806 12.519,-10.142 23.406,-12.126 6.135,-0.677 10.286,0 14.47,1.916 4.184,1.912 3.083,1.097 1.703,-0.215 -1.383,-1.31 -9.045,-3.76 -10.64,-3.404 10.425,0.285 14.361,1.953 16.384,2.765 2.021,0.817 2.269,0.037 0.849,-1.062 -1.417,-1.1 -10.992,-4.822 -18.935,-2.13 3.049,-1.559 14.682,-2.375 17.66,-2.339 2.977,0.036 0.567,-1.311 -2.129,-1.275 -2.693,0.033 -15.001,1.346 -16.383,2.338 -1.383,0.996 -2.412,1.099 -1.277,0 1.135,-1.099 3.76,-1.914 10.426,-3.616 6.67,-1.702 2.483,-2.73 -1.064,-1.49 -3.546,1.24 -8.864,2.732 -10.214,3.404 -1.345,0.675 -3.332,2.839 -2.34,0.849 0.995,-1.983 7.377,-6.413 10.003,-7.872 2.622,-1.449 -1.702,-0.777 -3.832,0.427 -2.127,1.206 -7.553,4.432 -8.512,5.106 -0.955,0.675 -2.233,0.746 -0.636,-0.849 1.595,-1.599 3.724,-3.795 4.892,-5.32 1.171,-1.526 0.25,-1.557 -1.488,0 -1.739,1.559 -5.178,2.946 -6.384,3.83 -1.206,0.887 -2.021,1.557 -2.127,0.213 -0.107,-1.347 -0.746,-2.73 -2.553,-1.488 -1.807,1.24 -3.688,2.021 -4.043,1.275 -0.356,-0.743 -3.653,-0.743 -5.319,0.213 -1.668,0.956 -1.668,0.884 -1.917,0.422 -0.248,-0.458 -3.439,-0.029 -4.68,0.429 -1.241,0.462 -1.277,0.675 -1.702,0.214 -0.425,-0.464 -4.538,0.031 -5.319,1.276 -0.782,1.239 -0.815,1.313 -1.064,0.853 -0.248,-0.464 -2.803,0.563 -3.618,1.061 -0.815,0.498 -0.638,0.458 -1.277,0.21 -0.638,-0.246 -2.374,0.639 -3.616,1.278 -1.241,0.641 -0.674,0.674 -1.489,0.426 -0.815,-0.248 -4.291,0.995 -4.256,1.703 0.035,0.709 -0.711,0.391 -1.063,0.424 -0.355,0.037 -2.27,2.059 -3.193,2.557 -0.921,0.494 -0.425,0.528 -1.275,0.423 -0.852,-0.104 -2.52,0.071 -2.766,0.849 -0.25,0.782 -0.603,0.82 -1.279,0.852 -0.673,0.038 -2.446,1.03 -2.977,1.919 -0.533,0.883 -0.533,0.242 -1.703,0.423 -1.171,0.178 -1.56,-0.14 -1.914,1.49 -0.355,1.631 0.034,1.135 -0.852,1.278 -0.886,0.141 -1.454,-0.038 -1.703,0.849 -0.248,0.887 0.568,1.1 -0.424,1.062 -0.993,-0.033 -3.05,1.421 -2.979,1.917 -2.66,0.568 -2.233,1.419 -2.553,2.129 -1.064,0.318 -2.52,1.666 -2.555,2.126 -0.816,0.211 -2.587,1.633 -2.553,2.13 0.035,0.496 -1.063,0.746 -1.488,0.849 -0.427,0.109 -1.385,1.595 -1.066,2.128 0.32,0.532 -0.46,0.249 -1.275,1.276 -0.816,1.029 0.318,1.099 -1.065,1.492 -1.382,0.389 -2.199,0.532 -2.978,1.062 -0.778,0.534 -2.198,0.816 -2.553,-0.212 -0.356,-1.03 -3.405,-8.937 -6.809,-13.829 -3.405,-4.895 -3.902,-1.564 -5.108,-0.643 -1.205,0.925 -1.276,0.746 -3.19,0.643 -1.915,-0.108 -4.15,-0.534 -5.745,-0.216 -1.598,0.319 -2.873,0.498 -2.766,0.851 -2.377,-0.708 -4.823,1.383 -5.318,2.127 -0.497,0.747 -0.569,0.429 -1.705,0.641 -1.133,0.211 -2.908,1.03 -2.766,1.912 0.143,0.889 -0.108,0.889 -0.851,1.067 -0.743,0.177 -1.737,1.242 -1.915,1.913 -0.176,0.674 0.64,0.606 -1.064,1.278 -1.701,0.673 -0.673,3.261 -0.211,3.833 0.461,0.563 1.417,0.563 0,1.272 -1.419,0.711 -2.873,2.447 -1.49,3.622 1.383,1.167 1.843,0.742 0.849,1.911 -0.992,1.173 -2.269,2.094 -1.702,2.981 0.569,0.883 0.924,1.135 0.642,1.915 -0.285,0.78 -2.059,2.941 -0.642,2.979 1.42,0.033 8.94,-0.358 12.769,-0.428 3.828,-0.07 5.567,-0.78 5.958,0 0.387,0.781 1.24,1.773 2.127,1.28 0.886,-0.499 3.369,-0.995 3.83,-0.429 0.46,0.569 1.737,0.496 0.424,1.065 -1.311,0.566 -1.132,0.709 -1.489,2.34 -0.354,1.632 0.532,2.091 -1.063,1.916 -1.596,-0.179 -2.908,0.39 -3.194,0.849 -0.282,0.464 -0.423,0.282 -1.06,0.428 -0.64,0.143 -0.533,0.284 -1.066,0.636 -0.532,0.356 -4.646,4.507 -5.106,4.685 -0.461,0.175 -0.214,-0.927 -1.701,0.212 -1.489,1.133 -0.393,0.989 -1.703,1.914 -1.315,0.922 -0.248,0.035 -1.703,1.062 -1.454,1.03 -1.49,1.278 -1.49,1.278 0,0 -2.021,2.587 -3.19,3.193 -1.17,0.601 -1.419,1.345 -1.49,2.127 -0.071,0.779 -2.519,1.738 -2.553,2.765 -0.213,1.135 -0.924,0.885 -1.49,1.49 -0.569,0.604 -1.489,1.844 -1.489,2.553 0,0.712 -0.249,1.345 -1.703,2.342 -1.453,0.992 -1.808,1.736 -1.914,2.339 -0.107,0.602 -0.638,0.214 -1.49,1.062 -0.85,0.855 -1.561,1.741 -1.277,2.342 0.283,0.604 0.498,1.065 -0.425,1.701 -0.923,0.639 -2.41,1.738 -1.917,2.768 0.5,1.028 0.924,0.709 0.215,1.701 -0.708,0.992 -1.95,1.844 -1.914,2.767 0.033,0.922 0.316,0.144 -1.278,1.276 -1.597,1.135 -3.51,4.822 -2.128,4.894 -0.78,0.995 -3.157,3.973 -2.34,4.683 0.814,0.708 1.206,0.885 0.213,2.128 -0.993,1.24 -1.987,3.226 -1.491,4.04 0.498,0.816 1.24,0.356 -0.849,2.979 -2.094,2.625 -4.151,3.867 -2.341,3.406 1.807,-0.461 5.46,-3.086 5.106,-1.916 -0.354,1.17 -2.306,2.908 -3.83,4.891 -1.525,1.99 -4.326,3.939 -4.682,4.685 -0.353,0.744 -0.035,1.455 1.704,0 1.736,-1.456 7.98,-4.685 10,-6.598 2.021,-1.911 5.711,-2.162 2.978,0 -2.728,2.165 -10,8.938 -11.276,12.126 -1.277,3.194 -0.285,3.693 1.276,1.28 1.561,-2.412 9.822,-8.617 11.915,-11.063 2.092,-2.448 6.632,-5.814 3.618,-2.343 -3.015,3.477 -11.383,14.646 -12.555,17.659 -1.168,3.016 -0.708,4.398 1.065,1.278 1.772,-3.118 7.553,-10.072 9.998,-13.404 2.449,-3.334 7.662,-8.153 5.322,-4.682 -2.34,3.475 -9.257,14.186 -10.213,18.302 -0.958,4.112 0.071,4.892 1.702,0.851 1.631,-4.046 8.474,-16.988 11.915,-20.217 -2.484,6.137 -4.966,15.818 -4.894,18.298 0.07,2.483 0.426,5.746 0.426,5.746 0,0 0.674,-1.415 1.064,-4.678 0.391,-3.265 3.013,-11.526 6.17,-18.512 2.092,-4.718 3.192,-5.962 3.192,-5.962 0,0 -2.696,10.393 -2.34,14.259 0.353,3.864 1.559,6.775 1.488,2.977 -0.071,-3.792 1.242,-13.864 2.979,-18.297 1.739,-4.434 5.887,-9.468 8.51,-12.764 2.625,-3.3 5.852,-5.499 8.299,-8.938 2.448,-3.442 6.811,-7.094 9.789,-9.789 2.978,-2.695 6.878,-6.382 9.787,-9.148 2.908,-2.767 4.148,-4.22 7.021,-5.959 2.872,-1.736 4.609,-2.091 5.959,-2.978 1.264,-0.832 2.587,-1.786 2.748,-1.904 0.921,0.058 4.82,0.316 5.975,0.626 3.652,0.988 7.882,2.415 11.064,0 C 7.267,11.134 8.521,9.842 9.789,8.722 11.277,7.412 11.774,5.886 11.277,3.83 10.781,1.774 8.938,1.704 8.938,1.704 8.938,3.993 8.657,4.1 6.17,5.105 6.17,5.105 6.139,5.11 6.083,5.12 6.463,4.562 3.192,4.509 1.704,3.407 0.604,2.59 -0.425,0.426 -0.425,0.426 c 0,0 -0.274,-0.291 -0.535,-0.692 C -0.486,-0.012 0,0 0,0"
            style="fill-opacity:1;fill-rule:evenodd;stroke:none"
            id="eaglepath" />
    </g>
</svg>